<svg width="213" height="71" viewBox="0 0 213 71" fill="none" xmlns="http://www.w3.org/2000/svg">
<g clip-path="url(#clip0_1_841)">
<path d="M78.099 32.278H72.919C72.771 32.278 72.623 32.278 72.401 32.167C74.066 26.802 75.768 21.511 79.69 17.145C79.949 17.626 79.949 17.959 79.986 18.329C80.097 19.217 80.171 20.105 80.171 20.993C80.171 22.214 80.06 23.435 79.949 24.693L79.394 31.02C79.283 32.241 79.32 32.241 78.099 32.278ZM82.465 51.111C83.686 51.111 84.907 50.556 84.907 49.52C84.907 48.706 84.352 47.67 84.167 46.56C83.945 45.006 83.871 43.452 83.871 41.861C83.945 36.274 84.352 32.833 84.833 27.098C84.981 25.618 85.055 24.138 85.055 22.695C85.055 21.548 85.018 20.438 84.87 19.328C84.722 17.996 84.426 16.701 83.649 15.591C82.724 14.222 81.392 13.519 79.986 13.519C78.913 13.519 77.84 13.926 76.878 14.814C76.73 14.925 76.619 15.036 76.508 15.184C75.805 15.924 75.213 16.738 74.658 17.589C69.774 25.174 67.406 35.016 66.074 43.6C65.852 45.154 65.63 46.708 65.63 48.299C65.667 49.742 65.963 51.074 67.258 51.074C67.924 51.037 68.146 50.889 68.294 49.964L68.331 49.89C69.034 45.561 70.107 40.603 71.217 36.274C71.328 35.941 71.402 35.793 71.809 35.793H78.321C78.876 35.793 78.987 35.793 78.987 36.163C78.913 37.569 78.839 38.753 78.839 40.122V44.525C78.913 46.19 79.172 47.818 79.727 49.409C80.134 50.63 81.281 51.111 82.465 51.111ZM102.109 51.111C103.33 51.111 104.551 50.519 104.551 49.52C104.551 48.78 104.033 47.818 103.885 46.893C103.589 45.154 103.478 43.378 103.478 41.602C103.552 37.532 103.811 35.201 104.181 30.835C104.44 27.283 104.81 23.768 105.328 20.253C105.513 19.106 105.587 17.996 105.587 16.886L105.55 15.739C105.476 14.407 104.551 13.223 103.552 13.223C102.331 13.223 101.702 14.925 101.221 16.479C99.3711 22.362 99.2231 28.652 98.6681 35.571C98.4461 35.46 98.4461 35.312 98.4091 35.164C97.5211 31.945 96.7441 28.689 96.1521 25.359C95.7451 23.213 95.2271 21.067 94.7461 18.921C94.2281 16.664 93.6361 13.223 91.7121 13.223C90.7501 13.223 90.4541 13.852 89.8991 14.962C88.3081 18.884 87.7901 23.657 87.4571 27.542C87.1981 30.391 87.0131 33.203 86.7911 36.052C86.6431 37.865 86.5321 39.678 86.5321 41.491C86.5321 44.081 86.6801 46.93 87.5311 49.446C87.9381 50.593 89.0851 51.074 90.1951 51.074C91.4161 51.074 92.6741 50.556 92.6741 49.52C92.6741 48.854 92.1931 47.892 92.0081 46.93C91.6751 44.895 91.6381 43.6 91.6381 41.565C91.6381 37.606 92.0821 32.907 92.4891 28.763H92.6001C93.8211 34.498 95.3751 39.456 97.3731 45.08C98.3351 47.855 99.4081 51.111 102.109 51.111ZM109.996 51.222C111.217 51.222 112.401 50.63 112.401 49.594C112.401 48.854 111.92 47.929 111.772 46.967C111.476 45.413 111.365 43.822 111.365 42.268C111.365 39.678 111.55 37.088 111.772 34.498C111.994 31.871 112.142 29.281 112.438 26.654C112.771 23.509 113.474 20.216 113.474 17.108L113.4 15.702C113.326 14.407 112.401 13.371 111.439 13.371C110.292 13.371 109.7 14.851 109.256 16.183C107.591 21.252 107.258 27.024 106.851 32.315C106.592 35.016 106.407 37.68 106.333 39.974V43.563C106.333 45.635 106.666 47.744 107.295 49.557C107.665 50.704 108.812 51.222 109.996 51.222ZM134.708 51.074C135.892 51.074 137.187 50.519 137.187 49.483C137.187 49.298 137.113 49.076 137.039 48.817C136.262 46.708 136.114 44.155 136.114 41.861C136.114 37.273 136.706 32.13 137.076 27.801C137.298 25.211 137.631 22.658 137.964 20.105C138.112 18.995 138.223 17.885 138.223 16.775L138.186 15.887C138.112 14.444 137.298 13.26 136.188 13.26C134.856 13.26 133.672 15.11 132.784 16.368C131.452 18.329 130.49 20.438 129.454 22.51C128.233 24.915 127.234 27.431 126.198 29.91C126.087 30.132 126.013 30.391 125.754 30.65C124.866 26.987 124.496 24.434 123.312 20.438C122.794 18.736 122.35 16.96 121.573 15.332C121.314 14.814 121.092 14.296 120.685 13.889C120.241 13.445 119.797 13.223 119.353 13.223C118.095 13.223 117.355 15.11 116.948 16.738C115.838 20.549 115.394 24.434 115.061 28.356L114.506 34.942C114.321 37.162 114.21 39.345 114.21 41.565L114.284 44.488C114.395 46.153 114.617 47.781 115.172 49.335C115.579 50.593 116.689 51.074 117.873 51.074C119.094 51.074 120.315 50.519 120.315 49.52C120.315 49.261 120.278 49.039 120.167 48.743C119.39 46.56 119.279 43.933 119.279 41.713C119.279 39.863 119.39 38.05 119.538 36.237C119.723 33.314 119.982 30.391 120.241 27.505C120.315 26.765 120.278 25.988 120.574 25.174C121.499 29.799 122.498 33.795 122.905 37.68C123.016 38.864 123.275 40.566 124.496 40.714L124.903 40.751C125.643 40.751 126.383 40.307 126.753 39.53C127.752 37.31 128.27 34.905 129.38 32.463L131.711 26.839C131.785 26.691 131.822 26.506 132.044 26.358L131.267 36.089C131.119 37.976 131.045 39.863 131.045 41.75C131.045 44.266 131.156 46.93 132.044 49.483C132.451 50.667 133.672 51.074 134.708 51.074ZM140.737 22.473C141.403 22.473 142.032 22.214 142.513 21.659C142.92 21.178 143.216 20.586 143.438 19.994C143.771 19.069 143.919 18.07 143.993 17.034C143.993 16.775 143.993 16.516 143.956 16.257C143.882 15.628 143.993 14.999 143.586 14.481C142.994 13.667 142.217 13.334 141.366 13.334L140.959 13.371C139.96 13.519 139.516 14.259 139.257 15.11C139.035 15.739 138.961 16.368 138.961 16.997L138.998 17.737C139.146 18.736 139.479 19.587 140.515 19.957C140.7 20.031 140.774 20.105 140.774 20.179C140.774 20.29 140.7 20.364 140.663 20.475C140.441 20.882 140.071 21.104 139.627 21.252C139.368 21.363 139.22 21.511 139.22 21.659C139.22 21.807 139.331 21.955 139.516 22.103C139.627 22.214 139.775 22.251 139.923 22.325C140.182 22.436 140.441 22.473 140.737 22.473ZM155.712 32.278H150.532C150.384 32.278 150.236 32.278 150.014 32.167C151.679 26.802 153.381 21.511 157.303 17.145C157.562 17.626 157.562 17.959 157.599 18.329C157.71 19.217 157.784 20.105 157.784 20.993C157.784 22.214 157.673 23.435 157.562 24.693L157.007 31.02C156.896 32.241 156.933 32.241 155.712 32.278ZM160.078 51.111C161.299 51.111 162.52 50.556 162.52 49.52C162.52 48.706 161.965 47.67 161.78 46.56C161.558 45.006 161.484 43.452 161.484 41.861C161.558 36.274 161.965 32.833 162.446 27.098C162.594 25.618 162.668 24.138 162.668 22.695C162.668 21.548 162.631 20.438 162.483 19.328C162.335 17.996 162.039 16.701 161.262 15.591C160.337 14.222 159.005 13.519 157.599 13.519C156.526 13.519 155.453 13.926 154.491 14.814C154.343 14.925 154.232 15.036 154.121 15.184C153.418 15.924 152.826 16.738 152.271 17.589C147.387 25.174 145.019 35.016 143.687 43.6C143.465 45.154 143.243 46.708 143.243 48.299C143.28 49.742 143.576 51.074 144.871 51.074C145.537 51.037 145.759 50.889 145.907 49.964L145.944 49.89C146.647 45.561 147.72 40.603 148.83 36.274C148.941 35.941 149.015 35.793 149.422 35.793H155.934C156.489 35.793 156.6 35.793 156.6 36.163C156.526 37.569 156.452 38.753 156.452 40.122V44.525C156.526 46.19 156.785 47.818 157.34 49.409C157.747 50.63 158.894 51.111 160.078 51.111ZM166.809 52.517C167.882 52.443 168.548 52.406 169.177 51.592C169.436 51.259 169.732 51.222 170.139 51.222H176.614C177.798 51.222 178.982 51.222 180.129 51.111C181.054 51.074 181.461 50.556 181.461 49.668C181.387 48.447 180.018 47.004 178.797 46.93C178.094 46.893 177.391 46.856 176.688 46.856L171.249 46.967C170.879 46.967 170.768 46.93 170.768 46.745C170.916 45.487 171.175 44.414 171.286 43.156C172.1 34.868 172.655 27.542 173.765 19.143C173.839 18.403 173.876 17.663 173.876 16.96L173.839 15.739C173.728 14.444 172.877 13.371 171.804 13.371C171.323 13.371 170.879 13.63 170.546 14.111C170.25 14.629 170.028 15.184 169.806 15.739C168.326 19.772 167.882 24.656 167.512 28.985C167.29 31.686 166.957 34.387 166.735 37.088C166.476 40.159 166.18 43.193 165.662 46.19C165.551 46.93 165.551 46.93 164.811 47.115C163.516 47.411 163.183 48.114 163.035 49.483C163.035 51.296 164.885 52.517 166.809 52.517ZM185.237 52.517C186.31 52.443 186.976 52.406 187.605 51.592C187.864 51.259 188.16 51.222 188.567 51.222H195.042C196.226 51.222 197.41 51.222 198.557 51.111C199.482 51.074 199.889 50.556 199.889 49.668C199.815 48.447 198.446 47.004 197.225 46.93C196.522 46.893 195.819 46.856 195.116 46.856L189.677 46.967C189.307 46.967 189.196 46.93 189.196 46.745C189.344 45.487 189.603 44.414 189.714 43.156C190.528 34.868 191.083 27.542 192.193 19.143C192.267 18.403 192.304 17.663 192.304 16.96L192.267 15.739C192.156 14.444 191.305 13.371 190.232 13.371C189.751 13.371 189.307 13.63 188.974 14.111C188.678 14.629 188.456 15.184 188.234 15.739C186.754 19.772 186.31 24.656 185.94 28.985C185.718 31.686 185.385 34.387 185.163 37.088C184.904 40.159 184.608 43.193 184.09 46.19C183.979 46.93 183.979 46.93 183.239 47.115C181.944 47.411 181.611 48.114 181.463 49.483C181.463 51.296 183.313 52.517 185.237 52.517Z" fill="#FFF8F0"/>
<path d="M42.687 46.6451L44.4709 48.4207L46.5635 50.4922L47.3639 51.3003L51.5377 47.1459L46.8722 42.4907L42.687 46.6451Z" fill="#5D6D7E"/>
<path d="M55.6082 47.1572L69.6275 61.1114C71.9031 63.3764 71.9031 67.0413 69.6275 69.3063C67.352 71.5713 63.6699 71.5713 61.3943 69.3063L47.375 55.3522L55.6082 47.1572Z" fill="#FFF8F0"/>
<path d="M53.6304 48.8304L54.7739 47.6694L68.9076 61.9309C70.7486 63.8089 70.7486 66.8023 68.9076 68.6803C68.7589 68.8283 68.5531 68.9194 68.3358 68.9194C68.1185 68.9194 67.9127 68.8283 67.7641 68.6803C67.4439 68.3616 67.4439 67.8495 67.7641 67.5194C68.9762 66.2901 68.9762 64.3097 67.7641 63.0805L53.6304 48.8304Z" fill="#DDDDDD"/>
<path d="M47.2154 55.2384L55.5058 46.9866L54.8883 46.372C54.0878 45.5752 52.7842 45.5752 51.9838 46.372L46.5979 51.7328C45.7974 52.5295 45.7974 53.8157 46.5979 54.6124L47.2154 55.2384Z" fill="#34495E"/>
<path d="M0 26.3623C0 11.8049 11.8695 0.00195312 26.4949 0.00195312C41.1203 0.00195312 52.9899 11.8163 52.9899 26.3737C52.9899 40.9311 41.1317 52.7455 26.4949 52.7455C11.8581 52.7455 0 40.9311 0 26.3623C0 26.3737 0 26.3623 0 26.3623Z" fill="#34495E"/>
<path d="M26.5519 49.7523C39.4964 49.7523 49.9823 39.3152 49.9823 26.4309C49.9823 13.5467 39.4964 3.1095 26.5519 3.1095C13.6189 3.1095 3.12158 13.5467 3.12158 26.4309C3.12158 39.3038 13.6075 49.7523 26.5519 49.7523Z" fill="#5D6D7E"/>
<path d="M26.5522 48.1931C38.6276 48.1931 48.416 38.4502 48.416 26.431C48.416 14.4117 38.6276 4.65747 26.5522 4.65747C14.4768 4.65747 4.68848 14.4117 4.68848 26.431C4.68848 38.4502 14.4768 48.1931 26.5522 48.1931Z" fill="#CEE2F2"/>
<path d="M41.1317 14.0929C37.2781 15.5726 33.7561 17.7693 30.7372 20.5692C29.9368 20.2733 29.0792 20.1139 28.2215 20.1139H25.58C24.7224 20.1139 23.8648 20.2733 23.0643 20.5692C20.0455 17.7693 16.5235 15.5726 12.6699 14.0929C11.8123 13.7742 10.8517 14.2067 10.5316 15.0604C10.4172 15.3449 10.3943 15.6522 10.4515 15.9482C11.1834 19.67 12.5784 23.2439 14.5681 26.4764C15.4029 27.8536 16.6607 28.9235 18.1473 29.5381L16.9695 40.1915C16.9695 43.276 21.4177 45.7686 26.9065 45.7686C32.3953 45.7686 36.8435 43.276 36.8435 40.1915L35.6657 29.5381C37.1523 28.9235 38.4101 27.8536 39.2449 26.4764C41.2346 23.2439 42.6296 19.67 43.3615 15.9482C43.533 15.049 42.927 14.184 42.0236 14.0133C41.7263 13.9563 41.4175 13.9905 41.1431 14.0929H41.1317Z" fill="#DEC4A7"/>
<path d="M36.8321 40.1916L36.0087 32.7706L32.5325 32.0877C30.3941 31.6666 28.6446 30.1642 27.9013 28.1268L26.895 25.3383L25.8888 28.1268C25.1455 30.1642 23.3959 31.6666 21.2576 32.0877L17.7813 32.7706L16.958 40.1916C16.958 43.2761 21.4062 45.7687 26.895 45.7687C32.3838 45.7687 36.8321 43.2647 36.8321 40.1916Z" fill="#F3E8D4"/>
<path d="M31.2975 33.2828C31.0002 33.2828 30.76 33.5218 30.76 33.8177C30.76 34.7283 30.0168 35.4795 29.102 35.4795C28.3129 35.4795 27.6383 34.9331 27.4668 34.1592C27.5354 34.1136 27.5811 34.0567 27.6383 33.9998L28.8961 32.395C29.2163 31.9852 29.1363 31.4048 28.736 31.0861C28.576 30.9609 28.3701 30.8926 28.1643 30.8926H25.6486C25.134 30.8926 24.7109 31.3137 24.7109 31.8259C24.7109 32.0308 24.7795 32.2356 24.9053 32.395L26.1632 33.9998C26.2089 34.0567 26.2661 34.1136 26.3233 34.1592C26.1403 35.0583 25.2598 35.6274 24.3564 35.4453C23.5788 35.286 23.03 34.6031 23.03 33.8177C23.03 33.5218 22.7898 33.2828 22.4925 33.2828C22.1952 33.2828 21.9551 33.5218 21.9551 33.8177C21.9551 35.3201 23.1786 36.538 24.688 36.5494C25.5571 36.5494 26.3804 36.1396 26.895 35.4339C27.7869 36.6518 29.5022 36.9136 30.7143 36.0144C31.4233 35.5022 31.8349 34.6827 31.8349 33.8177C31.8349 33.5104 31.5948 33.2714 31.2975 33.2828Z" fill="#2B1716"/>
<path d="M31.1375 26.7952C30.4514 26.7952 29.8911 27.3529 29.8911 28.0358V28.9122C29.914 29.5951 30.4857 30.1414 31.1833 30.1187C31.8465 30.0959 32.3725 29.5723 32.3954 28.9122V28.0358C32.3839 27.3415 31.8236 26.7952 31.1375 26.7952Z" fill="#2B1716"/>
<path d="M22.6529 26.7952C21.9668 26.7952 21.395 27.3415 21.395 28.0358V28.9122C21.4179 29.5951 21.9896 30.1414 22.6872 30.1187C23.3504 30.0959 23.8764 29.5723 23.8993 28.9122V28.0358C23.8879 27.3529 23.339 26.7952 22.6529 26.7952Z" fill="#2B1716"/>
<path d="M13.8705 13.6377C13.7676 13.4783 13.6304 13.3417 13.4932 13.2279C12.6813 12.5678 11.4692 12.6816 10.806 13.5011L10.7945 13.5125C6.42635 18.8619 5.34002 26.1805 7.95864 32.5657C8.39317 33.5331 9.52524 33.9657 10.4972 33.5331C11.4235 33.1234 11.8694 32.0649 11.5149 31.1202C9.43376 26.0097 10.3028 20.1936 13.7791 15.9027C14.3051 15.2539 14.3394 14.332 13.8705 13.6377Z" fill="white"/>
<path d="M26.1746 7.36631C25.7972 6.8086 25.1454 6.47852 24.4708 6.51267C21.4976 6.6834 18.616 7.54842 16.0431 9.02806C15.1283 9.55162 14.8196 10.724 15.3456 11.6345C15.8716 12.5451 17.0494 12.8524 17.9642 12.3288C20.0225 11.1451 22.321 10.4622 24.688 10.3256C25.74 10.2687 26.5405 9.3809 26.4833 8.33377V8.32238C26.4833 7.98093 26.369 7.65085 26.1746 7.36631Z" fill="white"/>
</g>
<defs>
<clipPath id="clip0_1_841">
<rect width="213" height="71" fill="white"/>
</clipPath>
</defs>
</svg>
