<svg width="60" height="60" viewBox="0 0 60 60" fill="none" xmlns="http://www.w3.org/2000/svg">
<path d="M35.5498 39.0097L37.0354 40.4947L38.7782 42.2272L39.4448 42.903L42.9208 39.4285L39.0353 35.5352L35.5498 39.0097Z" fill="#5D6D7E"/>
<path d="M46.3118 39.438L57.9873 51.1085C59.8824 53.0028 59.8824 56.0679 57.9873 57.9622C56.0921 59.8566 53.0257 59.8566 51.1305 57.9622L39.4551 46.2918L46.3118 39.438Z" fill="#FF9F00"/>
<path d="M44.6636 40.8373L45.6159 39.8663L57.3866 51.7938C58.9198 53.3644 58.9198 55.868 57.3866 57.4386C57.2628 57.5624 57.0914 57.6385 56.9104 57.6385C56.7295 57.6385 56.5581 57.5624 56.4343 57.4386C56.1676 57.1721 56.1676 56.7437 56.4343 56.4677C57.4437 55.4396 57.4437 53.7833 56.4343 52.7552L44.6636 40.8373Z" fill="#DDDDDD"/>
<path d="M39.3214 46.1967L46.2257 39.2953L45.7114 38.7813C45.0448 38.115 43.9592 38.115 43.2925 38.7813L38.8071 43.2648C38.1405 43.9311 38.1405 45.0068 38.8071 45.6731L39.3214 46.1967Z" fill="#34495E"/>
<path d="M0 22.0463C0 9.87132 9.8851 0 22.0653 0C34.2455 0 44.1306 9.88084 44.1306 22.0558C44.1306 34.2307 34.255 44.1116 22.0653 44.1116C9.87558 44.1116 0 34.2307 0 22.0463C0 22.0558 0 22.0463 0 22.0463Z" fill="#34495E"/>
<path d="M22.1132 41.6085C32.8935 41.6085 41.6262 32.8795 41.6262 22.1038C41.6262 11.3282 32.8935 2.59918 22.1132 2.59918C11.3424 2.59918 2.6001 11.3282 2.6001 22.1038C2.6001 32.87 11.3329 41.6085 22.1132 41.6085Z" fill="#5D6D7E"/>
<path d="M22.1127 40.3043C32.1692 40.3043 40.3211 32.1559 40.3211 22.1037C40.3211 12.0516 32.1692 3.89368 22.1127 3.89368C12.0562 3.89368 3.9043 12.0516 3.9043 22.1037C3.9043 32.1559 12.0562 40.3043 22.1127 40.3043Z" fill="#CEE2F2"/>
<path d="M34.2551 11.7849C31.0458 13.0224 28.1126 14.8595 25.5985 17.2012C24.9319 16.9538 24.2176 16.8205 23.5034 16.8205H21.3035C20.5893 16.8205 19.875 16.9538 19.2084 17.2012C16.6943 14.8595 13.7611 13.0224 10.5518 11.7849C9.83755 11.5183 9.0376 11.8801 8.77095 12.594C8.67572 12.832 8.65667 13.089 8.70429 13.3365C9.31378 16.4492 10.4756 19.4382 12.1326 22.1417C12.8278 23.2935 13.8754 24.1883 15.1134 24.7023L14.1325 33.6122C14.1325 36.1919 17.8371 38.2766 22.4082 38.2766C26.9794 38.2766 30.6839 36.1919 30.6839 33.6122L29.703 24.7023C30.941 24.1883 31.9886 23.2935 32.6838 22.1417C34.3408 19.4382 35.5026 16.4492 36.1121 13.3365C36.255 12.5845 35.7502 11.861 34.9979 11.7182C34.7503 11.6706 34.4932 11.6992 34.2646 11.7849H34.2551Z" fill="#FF9F00"/>
<path d="M30.6739 33.6124L29.9882 27.406L27.0932 26.8348C25.3123 26.4826 23.8553 25.2261 23.2363 23.5222L22.3982 21.19L21.5602 23.5222C20.9412 25.2261 19.4841 26.4826 17.7033 26.8348L14.8082 27.406L14.1226 33.6124C14.1226 36.1921 17.8271 38.2768 22.3982 38.2768C26.9694 38.2768 30.6739 36.1826 30.6739 33.6124Z" fill="#F3E8D4"/>
<path d="M26.0651 27.8343C25.8175 27.8343 25.6175 28.0342 25.6175 28.2817C25.6175 29.0433 24.9985 29.6715 24.2367 29.6715C23.5796 29.6715 23.0177 29.2146 22.8749 28.5673C22.932 28.5292 22.9701 28.4816 23.0177 28.434L24.0653 27.0918C24.3319 26.7492 24.2653 26.2637 23.9319 25.9972C23.7986 25.8924 23.6272 25.8353 23.4558 25.8353H21.3607C20.9321 25.8353 20.5798 26.1875 20.5798 26.6159C20.5798 26.7872 20.6369 26.9586 20.7417 27.0918L21.7892 28.434C21.8273 28.4816 21.8749 28.5292 21.9225 28.5673C21.7702 29.3193 21.0369 29.7953 20.2845 29.643C19.637 29.5097 19.1798 28.9386 19.1798 28.2817C19.1798 28.0342 18.9799 27.8343 18.7323 27.8343C18.4847 27.8343 18.2847 28.0342 18.2847 28.2817C18.2847 29.5383 19.3037 30.5568 20.5607 30.5663C21.2845 30.5663 21.9702 30.2236 22.3987 29.6335C23.1415 30.652 24.57 30.8709 25.5795 30.1189C26.1699 29.6906 26.5127 29.0052 26.5127 28.2817C26.5127 28.0247 26.3127 27.8248 26.0651 27.8343Z" fill="#2B1716"/>
<path d="M25.9321 22.4085C25.3607 22.4085 24.894 22.8749 24.894 23.4461V24.1791C24.9131 24.7502 25.3893 25.2071 25.9702 25.1881C26.5225 25.169 26.9606 24.7312 26.9796 24.1791V23.4461C26.9701 22.8654 26.5035 22.4085 25.9321 22.4085Z" fill="#2B1716"/>
<path d="M18.8654 22.4085C18.294 22.4085 17.8179 22.8654 17.8179 23.4461V24.1791C17.8369 24.7502 18.3131 25.2071 18.894 25.1881C19.4463 25.169 19.8844 24.7312 19.9035 24.1791V23.4461C19.8939 22.8749 19.4368 22.4085 18.8654 22.4085Z" fill="#2B1716"/>
<path d="M11.5516 11.4045C11.4659 11.2712 11.3516 11.157 11.2374 11.0618C10.5612 10.5097 9.55176 10.6049 8.99941 11.2902L8.98989 11.2998C5.35202 15.7737 4.44731 21.8945 6.62813 27.2348C6.99001 28.0439 7.93281 28.4056 8.74229 28.0439C9.51367 27.7012 9.88507 26.8159 9.58985 26.0258C7.85663 21.7517 8.58039 16.8875 11.4755 13.2988C11.9135 12.7562 11.9421 11.9851 11.5516 11.4045Z" fill="white"/>
<path d="M21.7983 6.15919C21.484 5.69275 20.9412 5.4167 20.3793 5.44526C17.9033 5.58804 15.5035 6.3115 13.3607 7.54898C12.5989 7.98686 12.3418 8.96733 12.7798 9.72886C13.2179 10.4904 14.1988 10.7474 14.9606 10.3095C16.6748 9.31954 18.589 8.74839 20.5603 8.63416C21.4364 8.58656 22.1031 7.84407 22.0554 6.96831V6.9588C22.0554 6.67322 21.9602 6.39717 21.7983 6.15919Z" fill="white"/>
</svg>
